Coordinates
version=1
nRows=12
nColumns=46
inDegrees=yes

Units are S.I. units (second, meters, Newtons, ...)
Angles are in degrees.

endheader
time	pelvis_tilt	pelvis_list	pelvis_rotation	pelvis_tx	pelvis_ty	pelvis_tz	bb_angle	bb_tx	bb_ty	bb_tz	hip_flexion_r	hip_adduction_r	hip_rotation_r	knee_angle_r	knee_angle_r_beta	ankle_angle_r	subtalar_angle_r	mtp_angle_r	crank_angle_r	hip_flexion_l	hip_adduction_l	hip_rotation_l	knee_angle_l	knee_angle_l_beta	ankle_angle_l	subtalar_angle_l	mtp_angle_l	crank_angle_l	lumbar_extension	lumbar_bending	lumbar_rotation	arm_flex_r	arm_add_r	arm_rot_r	elbow_flex_r	pro_sup_r	wrist_flex_r	wrist_dev_r	arm_flex_l	arm_add_l	arm_rot_l	elbow_flex_l	pro_sup_l	wrist_flex_l	wrist_dev_l
      7.50000000	    -18.97072590	      4.50646489	      2.95822726	      0.15959466	      1.06205916	     -0.22286881	      0.00000000	      0.50000000	      0.00000000	      0.25000000	     44.19010285	    -10.96305832	     -5.69671768	     26.67453495	      0.46555846	    -37.21426034	     -4.51984525	      0.00000000	      0.00000000	     88.39498379	     -0.23589607	      0.94114882	    115.46703789	      2.01527999	    -10.17886682	    -14.91028015	      0.00000000	      0.00000000	    -59.23205819	     -0.76700309	     -9.19980261	     88.77238780	    -11.09024877	     31.97398290	     59.86774700	     40.52657226	      0.00000000	      0.00000000	     85.06649099	    -19.01555535	     21.07607321	     66.98358230	     48.62015904	      0.00000000	      0.00000000
      7.50500000	    -19.10258985	      4.66832376	      3.16140975	      0.15921657	      1.06362988	     -0.22152703	      0.00000000	      0.50000000	      0.00000000	      0.25000000	     43.36357431	    -11.02720672	     -5.61639971	     25.96980065	      0.45325853	    -37.96181634	     -4.73519167	      0.00000000	      0.00000000	     89.50240176	     -0.03210535	      1.00484923	    115.37370508	      2.01365102	     -9.75615360	    -14.58361502	      0.00000000	      0.00000000	    -59.26211299	     -0.89756594	     -9.42597494	     88.76693853	    -11.07419945	     31.88368909	     59.66737427	     40.49410951	      0.00000000	      0.00000000	     85.24632406	    -18.76205927	     21.07542020	     66.94500836	     48.61029445	      0.00000000	      0.00000000
      7.51000000	    -19.18199389	      4.87516091	      3.31543829	      0.15860745	      1.06485518	     -0.22057922	      0.00000000	      0.50000000	      0.00000000	      0.25000000	     42.66167419	    -11.12668939	     -5.46456010	     25.62616508	      0.44726096	    -38.49021672	     -5.05080142	      0.00000000	      0.00000000	     90.49213540	      0.23750517	      1.09093825	    115.22759918	      2.01110099	     -8.93828716	    -13.68352261	      0.00000000	      0.00000000	    -59.30788462	     -1.01971734	     -9.47861936	     88.81825146	    -10.86031137	     31.23350755	     59.11163506	     40.39140234	      0.00000000	      0.00000000	     85.39783107	    -18.02831734	     20.79086301	     66.44625367	     48.49324278	      0.00000000	      0.00000000
      7.51500000	    -19.39397758	      5.19265790	      3.56152236	      0.15786183	      1.06579834	     -0.21994449	      0.00000000	      0.50000000	      0.00000000	      0.25000000	     42.21762696	    -11.38756889	     -5.15346375	     25.60543911	      0.44689922	    -38.55697231	     -5.44191810	      0.00000000	      0.00000000	     91.50278837	      0.67557690	      0.96462818	    114.86816314	      2.00482765	     -8.53080841	    -13.73850213	      0.00000000	      0.00000000	    -59.27751175	     -1.10356957	     -9.77508617	     88.89039494	    -10.86609776	     31.13086747	     59.10632586	     40.38614384	      0.00000000	      0.00000000	     85.49337270	    -17.76417011	     20.78326099	     66.47233558	     48.49419784	      0.00000000	      0.00000000
      7.52000000	    -19.69566383	      5.62734735	      3.77044674	      0.15714176	      1.06662714	     -0.21919847	      0.00000000	      0.50000000	      0.00000000	      0.25000000	     42.10147483	    -11.73315086	     -4.79065011	     26.04329270	      0.45454121	    -38.61852447	     -6.20180530	      0.00000000	      0.00000000	     92.43466360	      1.09288905	      0.71970775	    114.33376473	      1.99550064	     -7.93566787	    -13.51920732	      0.00000000	      0.00000000	    -59.19161893	     -1.38163986	    -10.18353687	     88.89249413	    -10.89674626	     30.91569868	     59.10204566	     40.37508009	      0.00000000	      0.00000000	     85.61445574	    -17.31807822	     20.59553336	     66.47948964	     48.47195938	      0.00000000	      0.00000000
      7.52500000	    -19.90493568	      5.94060509	      3.95053156	      0.15636942	      1.06751750	     -0.21834910	      0.00000000	      0.50000000	      0.00000000	      0.25000000	     41.92623750	    -11.89376246	     -4.21774493	     26.59667377	      0.46419953	    -38.50093653	     -7.14851607	      0.00000000	      0.00000000	     93.14859210	      1.43616050	      0.55607319	    113.66987128	      1.98391351	     -7.24351440	    -13.33342738	      0.00000000	      0.00000000	    -59.22141414	     -1.55661269	    -10.46930215	     88.92258699	    -10.91085806	     30.69598122	     59.12189299	     40.36805064	      0.00000000	      0.00000000	     85.77383740	    -16.83408993	     20.19616289	     66.47453450	     48.42492979	      0.00000000	      0.00000000
      7.53000000	    -20.22408617	      6.08412545	      4.21924156	      0.15551256	      1.06793778	     -0.21796520	      0.00000000	      0.50000000	      0.00000000	      0.25000000	     41.99597932	    -11.99450474	     -3.74996505	     27.46873292	      0.47941983	    -38.35579698	     -8.12937149	      0.00000000	      0.00000000	     93.90895224	      1.89680784	      0.57424798	    112.92834106	      1.97097137	     -6.48819545	    -13.32792624	      0.00000000	      0.00000000	    -59.06457180	     -1.51586182	    -10.64050648	     88.95469491	    -10.93832305	     30.54791720	     59.17451777	     40.37077052	      0.00000000	      0.00000000	     85.84443862	    -16.28657415	     19.72402926	     66.46193525	     48.36968764	      0.00000000	      0.00000000
      7.53500000	    -20.58161683	      6.30047170	      4.66425201	      0.15470088	      1.06825163	     -0.21819429	      0.00000000	      0.50000000	      0.00000000	      0.25000000	     42.25939154	    -12.34333827	     -3.38640642	     28.64973675	      0.50003224	    -38.13842780	     -9.03298871	      0.00000000	      0.00000000	     94.53107825	      2.61758806	      0.49303943	    111.99307355	      1.95464787	     -5.71722885	    -13.14188899	      0.00000000	      0.00000000	    -58.86003501	     -1.36930802	    -10.62559430	     88.90574054	    -11.24937641	     30.12743283	     59.41424033	     40.45046259	      0.00000000	      0.00000000	     85.56322291	    -14.02783789	     16.95640529	     65.97861946	     48.00135904	      0.00000000	      0.00000000
      7.54000000	    -20.51177816	      6.83935763	      4.58353220	      0.15341539	      1.06972081	     -0.21648104	      0.00000000	      0.50000000	      0.00000000	      0.25000000	     42.33261210	    -12.43050776	     -2.24636587	     29.94272883	      0.52259921	    -38.10501720	    -10.26888245	      0.00000000	      0.00000000	     94.36711453	      2.62748964	      0.09059167	    110.78567777	      1.93357484	     -4.73649146	    -13.05858171	      0.00000000	      0.00000000	    -59.28778792	     -1.87474570	    -11.01030415	     88.97965395	    -11.20774583	     29.86489327	     59.59777053	     40.46504479	      0.00000000	      0.00000000	     86.00709261	    -13.68692034	     16.84675052	     65.96780664	     47.98007088	      0.00000000	      0.00000000
      7.54500000	    -20.80722710	      6.93648224	      5.07747611	      0.15249278	      1.07015921	     -0.21689389	      0.00000000	      0.50000000	      0.00000000	      0.25000000	     42.79919283	    -12.73234800	     -2.02011922	     31.52839645	      0.55027433	    -37.99104998	    -11.18001120	      0.00000000	      0.00000000	     94.57338770	      3.40500411	      0.08767620	    109.52781453	      1.91162099	     -3.64352425	    -13.21971465	      0.00000000	      0.00000000	    -59.18188366	     -1.52710763	    -11.22084151	     89.08170379	    -11.22263772	     29.69877304	     59.72489505	     40.47137030	      0.00000000	      0.00000000	     86.13446574	    -13.30937094	     16.75117169	     66.00623443	     47.97232575	      0.00000000	      0.00000000
      7.55000000	    -21.18429673	      7.31300702	      5.23797190	      0.15137109	      1.07050908	     -0.21621447	      0.00000000	      0.50000000	      0.00000000	      0.25000000	     43.65150141	    -12.93825554	     -1.17681794	     33.36957211	      0.58240890	    -38.01928403	    -12.30429808	      0.00000000	      0.00000000	     94.59292934	      3.71552783	     -0.16047025	    108.04809913	      1.88579508	     -2.39659332	    -12.94922563	      0.00000000	      0.00000000	    -59.06300068	     -1.75808650	    -11.53949562	     88.99149715	    -11.21525410	     29.02997839	     60.17799084	     40.49242180	      0.00000000	      0.00000000	     86.21295885	    -12.50660788	     15.87981537	     65.93863046	     47.86122587	      0.00000000	      0.00000000
      7.55500000	    -21.43608206	      7.54576952	      5.44706919	      0.15021529	      1.07093317	     -0.21570965	      0.00000000	      0.50000000	      0.00000000	      0.25000000	     44.46810459	    -13.07944356	     -0.50560843	     35.38521485	      0.61758851	    -38.04499000	    -13.39179067	      0.00000000	      0.00000000	     94.35368639	      4.05442927	     -0.28452983	    106.42680846	      1.85749822	     -1.11514257	    -12.83381227	      0.00000000	      0.00000000	    -59.02781090	     -1.78555446	    -11.73050685	     89.02499501	    -11.24615219	     28.75418559	     60.39490502	     40.50437252	      0.00000000	      0.00000000	     86.31189233	    -11.99671842	     15.38056003	     66.01699778	     47.81571751	      0.00000000	      0.00000000
